# xmcd
#
# Track frame offsets:
#	150
#	10292
#	23512
#	34170
#	51810
#	64647
#	76200
#	86810
#	98522
#	110400
#	119772
#	135172
#	145007
#	160122
#	172502
#	189742
#	201917
#
# Disc length: 2886 seconds
#
# Revision: 2
# Processed by: cddbd v1.5.2PL0 Copyright (c) Steve Scherf et al.
# Submitted via: EZCDAudioConverter 7.0.4.1
#
DISCID=d00b4411
DTITLE=Various Artist - Country Memories
DYEAR=1989
DGENRE=Country
TTITLE0=Leroy Van Dyke - Walk On By
TTITLE1=Glen Campbell - Wichita Lineman
TTITLE2=Dave Dudley - Six Days On The Road
TTITLE3=Jimmy Dean - Big Bad John
TTITLE4=B.J. Thomas - Raindrops Keep Falling On My Head
TTITLE5=Donna Fargo - The Happiest Girl In The Whole U .S .A.
TTITLE6=Jerry Reed - Amos Moses
TTITLE7=Freddy Fender - Before The Next Teardrop Falls
TTITLE8=Bobby Goldsboro - Watchin' Scotty Grow
TTITLE9=Charley Pride - Kiss An Angel Good Morning
TTITLE10=Elvis Presley - Kentucky Rain
TTITLE11=Waylon Jennings - Theme From The Dukes Of Hazzard
TTITLE12=Sylvia - Nobody
TTITLE13=Freddy Fender - Wasted Days And Wasted Nights
TTITLE14=C.W. McCall - Convoy
TTITLE15=The Oak Ridge Boys - Elvira
TTITLE16=Ronnie McDowell - The King Is Gone
EXTD=
EXTT0=
EXTT1=
EXTT2=
EXTT3=
EXTT4=
EXTT5=
EXTT6=
EXTT7=
EXTT8=
EXTT9=
EXTT10=
EXTT11=
EXTT12=
EXTT13=
EXTT14=
EXTT15=
EXTT16=
PLAYORDER=
